<svg xmlns="http://www.w3.org/2000/svg" width="93" height="82.667" viewBox="0 0 93 82.667">
  <path id="Icon_awesome-shopping-cart" data-name="Icon awesome-shopping-cart" d="M85.269,48.65,92.9,15.067a3.875,3.875,0,0,0-3.779-4.734H25.705L24.226,3.1a3.875,3.875,0,0,0-3.8-3.1H3.875A3.875,3.875,0,0,0,0,3.875V6.458a3.875,3.875,0,0,0,3.875,3.875H15.158L26.5,65.784a9.043,9.043,0,1,0,10.825,1.383H71.175a9.039,9.039,0,1,0,10.268-1.68l.891-3.92a3.875,3.875,0,0,0-3.779-4.734H35.217L34.16,51.667H81.491A3.875,3.875,0,0,0,85.269,48.65Z" fill="#ffbc4a"/>
</svg>
